<svg width="297" height="73" viewBox="0 0 297 73" fill="none" xmlns="http://www.w3.org/2000/svg">
<rect y="27.5" width="18" height="18" rx="9" fill="white"/>
<rect x="22" width="18" height="73" rx="9" fill="white"/>
<rect x="44" y="20.5" width="18" height="32" rx="9" fill="white"/>
<rect x="66" y="10.5" width="18" height="52" rx="9" fill="#4F39F6"/>
<rect x="88" y="27.5" width="18" height="18" rx="9" fill="white"/>
<path d="M141.064 70L158.056 1.36H171.112L154.12 70H141.064ZM140.872 70L123.88 1.36H137.032L153.928 70H140.872ZM180.556 58.288V47.728H205.132V58.288H180.556ZM197.548 1.36L180.652 70H167.5L184.492 1.36H197.548ZM197.74 1.36L214.732 70H201.676L184.684 1.36H197.74ZM229.718 70V59.44H252.95V70H229.718ZM219.062 70V1.36H232.598V70H219.062ZM267.41 70V59.44H292.562V70H267.41ZM267.89 41.008V30.352H286.802V41.008H267.89ZM257.714 1.36H271.25V70H257.714V1.36ZM268.37 1.36H291.602V11.92H268.37V1.36Z" fill="white"/>
</svg>
